<svg xmlns="http://www.w3.org/2000/svg" xmlns:xlink="http://www.w3.org/1999/xlink" width="500" zoomAndPan="magnify" viewBox="0 0 375 374.999991" height="500" preserveAspectRatio="xMidYMid meet" version="1.0"><defs><g/></defs><g fill="#000000" fill-opacity="1"><g transform="translate(73.32612, 268.693116)"><g><path d="M 171.613281 4.5625 C 169.394531 14.476562 164.046875 30.253906 152.183594 30.253906 C 133.273438 29.472656 120.492188 3.78125 115.277344 -10.433594 C 102.890625 -43.425781 96.238281 -78.632812 89.585938 -113.191406 C 87.890625 -122.058594 86.199219 -130.796875 84.761719 -139.664062 C 84.503906 -141.75 81.894531 -142.269531 80.066406 -142.269531 C 77.460938 -142.269531 73.808594 -140.707031 73.289062 -137.835938 C 66.507812 -106.929688 60.378906 -75.503906 50.335938 -45.511719 C 46.292969 -33.382812 37.296875 -5.867188 23.082031 -5.867188 C 16.820312 -5.867188 10.042969 -10.953125 4.957031 -15.257812 C 4.171875 -15.777344 3.128906 -16.039062 1.957031 -16.039062 C -1.171875 -16.039062 -5.085938 -13.824219 -5.085938 -11.214844 C -5.085938 -10.300781 -4.695312 -9.519531 -3.78125 -8.738281 C 3.390625 -2.476562 11.996094 2.347656 21.648438 2.347656 C 40.035156 2.347656 50.074219 -17.34375 56.464844 -33.382812 C 60.117188 -33.90625 63.636719 -34.296875 66.898438 -34.296875 C 85.414062 -34.296875 98.195312 -25.558594 103.542969 -10.953125 C 110.84375 8.214844 125.710938 38.339844 150.09375 38.339844 C 170.570312 38.339844 179.566406 19.691406 183.085938 3.78125 C 183.085938 1.042969 180.742188 0.261719 178.914062 0.261719 C 175.914062 0.261719 172.003906 1.824219 171.613281 4.5625 Z M 58.289062 -37.6875 C 65.855469 -58.421875 73.808594 -100.019531 78.632812 -121.667969 C 82.675781 -100.671875 90.109375 -54.507812 95.847656 -34.425781 C 87.761719 -37.296875 79.285156 -38.207031 70.941406 -38.207031 C 66.636719 -38.207031 62.464844 -37.949219 58.289062 -37.6875 Z M 58.289062 -37.6875 "/></g></g></g><g fill="#000000" fill-opacity="1"><g transform="translate(185.229669, 268.693116)"><g><path d="M 103.800781 -140.316406 C 93.761719 -141.75 83.589844 -142.140625 73.289062 -142.140625 C 53.203125 -142.140625 33.253906 -141.097656 13.300781 -138.097656 C 10.953125 -137.835938 8.085938 -135.097656 8.738281 -132.492188 C 9.257812 -130.40625 11.34375 -129.882812 13.433594 -129.882812 C 14.214844 -129.882812 14.867188 -129.882812 15.519531 -130.011719 C 28.035156 -132.230469 40.554688 -132.75 52.8125 -133.144531 C 54.898438 -98.457031 54.25 -63.375 52.8125 -28.6875 C 52.421875 -19.300781 51.769531 -10.042969 51.117188 -0.652344 C 50.988281 0.652344 52.421875 1.304688 54.378906 1.304688 C 57.640625 1.304688 62.074219 -0.390625 62.203125 -2.476562 C 65.464844 -38.859375 65.722656 -75.632812 64.941406 -112.148438 C 64.8125 -119.191406 64.679688 -126.363281 64.289062 -133.402344 C 66.898438 -133.402344 69.503906 -133.402344 72.113281 -133.402344 C 81.503906 -133.402344 91.023438 -133.144531 100.152344 -131.839844 C 103.019531 -131.839844 106.019531 -132.230469 107.453125 -135.230469 C 108.625 -137.96875 106.410156 -140.054688 103.800781 -140.316406 Z M 103.800781 -140.316406 "/></g></g></g></svg>