<svg xmlns="http://www.w3.org/2000/svg" xmlns:xlink="http://www.w3.org/1999/xlink" width="500" zoomAndPan="magnify" viewBox="0 0 375 374.999991" height="500" preserveAspectRatio="xMidYMid meet" version="1.0"><defs><g/></defs><g fill="#5ce1e6" fill-opacity="1"><g transform="translate(67.832616, 269.598875)"><g><path d="M 168.488281 3.78125 L 168.617188 3.78125 C 166.398438 13.171875 161.835938 28.296875 154.140625 28.691406 C 139.277344 27.386719 127.015625 2.609375 122.0625 -11.214844 C 108.890625 -49.554688 98.328125 -95.589844 92.066406 -139.144531 C 91.675781 -141.621094 86.460938 -142.273438 82.546875 -142.273438 C 77.984375 -142.273438 71.722656 -140.578125 71.070312 -137.320312 C 64.941406 -106.542969 58.03125 -74.070312 48.640625 -46.035156 C 44.597656 -34.167969 35.601562 -7.042969 26.082031 -7.042969 C 19.953125 -7.042969 13.953125 -17.214844 5.214844 -17.214844 C -1.304688 -17.214844 -10.953125 -13.953125 -3.652344 -8.738281 C 4.042969 -3.128906 12.78125 2.347656 24.648438 2.347656 C 46.816406 2.347656 57.25 -17.476562 63.769531 -33.515625 C 63.640625 -33.515625 66.898438 -34.035156 69.507812 -34.035156 C 85.15625 -34.035156 95.980469 -25.429688 101.328125 -11.214844 C 108.5 7.824219 124.019531 37.949219 151.925781 37.949219 C 176.050781 37.949219 185.960938 19.039062 189.480469 2.738281 C 189.480469 -0.261719 184.398438 -1.042969 180.484375 -1.042969 C 175.527344 -1.042969 168.878906 0.78125 168.488281 3.78125 Z M 80.722656 -104.976562 C 84.375 -84.632812 88.808594 -52.554688 92.851562 -37.296875 C 86.722656 -38.730469 80.199219 -39.121094 73.550781 -39.121094 C 71.070312 -39.121094 68.464844 -38.992188 65.984375 -38.863281 C 71.332031 -54.25 76.550781 -85.15625 80.722656 -104.976562 Z M 80.722656 -104.976562 "/></g></g></g><g fill="#5ce1e6" fill-opacity="1"><g transform="translate(184.830114, 269.598875)"><g><path d="M 106.933594 -140.320312 C 76.679688 -144.230469 44.597656 -142.40625 16.039062 -138.101562 C 12.390625 -137.449219 6.652344 -135.753906 7.433594 -131.84375 C 8.347656 -128.453125 17.214844 -128.320312 19.5625 -128.84375 C 30.253906 -130.800781 40.816406 -131.449219 50.988281 -131.84375 C 51.902344 -116.191406 52.292969 -101.195312 52.292969 -85.546875 C 52.292969 -57.378906 51.25 -29.339844 49.292969 -1.304688 C 49.292969 0.523438 52.816406 1.304688 57.25 1.304688 C 62.464844 1.304688 69.769531 -0.652344 69.769531 -3.128906 C 72.117188 -28.691406 72.898438 -54.25 72.898438 -79.808594 C 72.898438 -97.285156 72.636719 -114.757812 71.984375 -132.234375 C 82.027344 -132.234375 92.066406 -131.582031 101.980469 -130.667969 C 106.152344 -130.277344 113.976562 -130.800781 115.019531 -136.015625 C 115.019531 -138.230469 111.105469 -139.925781 106.804688 -140.320312 Z M 106.933594 -140.320312 "/></g></g></g></svg>